<svg xmlns="http://www.w3.org/2000/svg" version="1.1" viewBox="0 0 48 48">
 <title>logo</title>
 <desc>Created with Sketch.</desc>
 <g id="Symbols" fill-rule="evenodd">
  <g id="logo/short" fill-rule="nonzero">
   <g id="logo">
    <g id="logo-(2)">
     <path id="Path" d="m10.277 46.429l-1.4088-1.984c-0.299-0.422-0.8832-0.521-1.3046-0.222-0.4213 0.3-0.5205 0.884-0.2213 1.305l1.4087 1.984c0.1824 0.257 0.4708 0.394 0.7638 0.394 0.1873 0 0.3764-0.056 0.5412-0.172 0.421-0.3 0.52-0.884 0.221-1.305z"/>
     <path d="m21.072 46.779l-1.533-7.307c-0.746-3.553-2.815-6.625-5.828-8.651l-3.273-2.201c-1.3123-0.882-3.0764-0.692-4.1734 0.426v-11.274c0-1.48-1.0089-2.737-2.4536-3.058-0.9324-0.207-1.8941 0.017-2.639 0.615-0.74477 0.598-1.1719 1.488-1.1719 2.443l-0.000006433 14.508c0 1.9 0.58162 3.724 1.6819 5.274l1.6685 2.351c0.1825 0.257 0.4709 0.394 0.7638 0.394 0.1874 0 0.3765-0.056 0.5409-0.173 0.4213-0.299 0.5205-0.883 0.2212-1.305l-1.6685-2.35c-0.8743-1.232-1.3365-2.681-1.3365-4.191v-14.508c0-0.384 0.172-0.743 0.4718-0.984 0.2997-0.24 0.6868-0.33 1.0624-0.247 0.5815 0.129 0.9877 0.635 0.9877 1.231v11.51c0 1.63 0.5986 3.182 1.6861 4.39 0.0466 0.056 0.0945 0.111 0.1452 0.165 0.6213 0.658 1.3519 1.434 2.04 2.165l0.9633 1.025c0.0031 0.004 0.0064 0.006 0.0096 0.01 0.8245 0.876 1.4315 1.523 1.4445 1.537 0.354 0.376 0.946 0.395 1.323 0.041 0.376-0.353 0.395-0.946 0.041-1.322-0.017-0.018-1.112-1.185-2.3631-2.514l-2.1454-2.284c-0.0054-0.005-0.0104-0.011-0.0158-0.017-0.503-0.602-0.4968-1.474 0.0305-2.069 0.4664-0.527 1.2584-0.628 1.842-0.236l3.2728 2.201c2.606 1.752 4.396 4.409 5.04 7.482l1.534 7.307c0.092 0.441 0.481 0.744 0.914 0.744 0.064 0 0.129-0.007 0.193-0.02 0.506-0.107 0.83-0.603 0.724-1.108z"/>
     <path d="m6.9323 41.718l-0.006-0.009c-0.3003-0.42-0.8846-0.518-1.3052-0.218-0.4205 0.3-0.5182 0.885-0.2182 1.305l0.006 0.009c0.1827 0.255 0.4704 0.392 0.7625 0.392 0.1881 0 0.3779-0.057 0.5427-0.174 0.4205-0.3 0.5183-0.885 0.2182-1.305z"/>
     <path d="m46.735 15.329c-0.745-0.598-1.707-0.822-2.639-0.615-1.445 0.321-2.454 1.578-2.454 3.058v11.275c-1.097-1.119-2.861-1.309-4.174-0.426l-3.273 2.2c-3.012 2.026-5.082 5.098-5.827 8.651l-1.533 7.307c-0.106 0.505 0.217 1.001 0.723 1.108 0.065 0.013 0.13 0.02 0.193 0.02 0.434 0 0.822-0.303 0.915-0.744l1.533-7.307c0.645-3.073 2.435-5.73 5.04-7.482l3.273-2.201c0.584-0.392 1.376-0.291 1.842 0.236 0.527 0.594 0.534 1.465 0.033 2.067-0.006 0.006-0.012 0.013-0.018 0.019 0 0-4.491 4.78-4.508 4.798-0.354 0.376-0.336 0.969 0.041 1.322 0.377 0.354 0.969 0.335 1.323-0.041 0.012-0.014 3.836-4.079 4.457-4.737 0.051-0.054 0.099-0.109 0.145-0.165 1.088-1.208 1.686-2.76 1.686-4.39v-11.51c0-0.596 0.407-1.102 0.988-1.231 0.376-0.083 0.763 0.007 1.063 0.247 0.299 0.241 0.471 0.6 0.471 0.984v14.508c0 1.51-0.462 2.959-1.336 4.191l-7.069 9.958c-0.299 0.421-0.2 1.006 0.221 1.305 0.165 0.116 0.354 0.173 0.541 0.173 0.293 0 0.581-0.138 0.764-0.395l7.069-9.958c1.1-1.55 1.682-3.374 1.682-5.274v-14.508c-0.001-0.955-0.428-1.845-1.172-2.443z"/>
     <path id="Shape" d="m35.804 17.933l-1.664-0.398v-0.298c1.082-0.758 1.791-2.013 1.791-3.431v-2.164c0-2.3095-1.879-4.1881-4.188-4.1881-1.036 0-1.985 0.3792-2.717 1.005-0.815-1.9958-2.776-3.4063-5.061-3.4063-2.288 0-4.251 1.4141-5.064 3.4137-0.733-0.6302-1.686-1.0125-2.726-1.0125-2.309 0-4.188 1.8785-4.188 4.1872v0.144 2.021c0 1.418 0.71 2.673 1.792 3.431v0.298l-1.665 0.398c-1.988 0.475-3.3758 2.234-3.3758 4.277v1.748c0 0.516 0.419 0.935 0.9357 0.935h4.3001c-0.007 0.114-0.012 0.228-0.012 0.343v3.364c0 0.517 0.419 0.936 0.936 0.936h5.624c0.517 0 0.936-0.419 0.936-0.936s-0.419-0.935-0.936-0.935h-0.966v-1.934c0-0.517-0.419-0.936-0.936-0.936s-0.936 0.419-0.936 0.936v1.934h-1.85v-2.429c0-1.805 1.225-3.359 2.98-3.779l2.568-0.616 1.718 3.91c0.15 0.34 0.486 0.559 0.857 0.559s0.707-0.219 0.856-0.559l1.717-3.904 2.559 0.612c1.757 0.419 2.984 1.974 2.984 3.78v2.426h-1.851v-1.934c0-0.517-0.419-0.936-0.936-0.936-0.516 0-0.935 0.419-0.935 0.936v1.934h-1.061c-0.516 0-0.935 0.419-0.935 0.935 0 0.517 0.419 0.936 0.935 0.936h5.718c0.517 0 0.936-0.419 0.936-0.936v-3.361c0-0.116-0.005-0.231-0.011-0.346h4.311c0.517 0 0.936-0.419 0.936-0.935v-1.748c0-2.043-1.388-3.802-3.376-4.277zm-4.061-8.6079c1.226 0 2.233 0.9569 2.312 2.1639h-1.301c-1.094 0-2.17-0.264-3.138-0.765 0.356-0.8222 1.176-1.3989 2.127-1.3989zm-2.316 4.3439c0.001-0.046 0.003-0.091 0.003-0.137v-0.833c1.05 0.434 2.179 0.661 3.324 0.661h1.306v0.446c0 1.277-1.039 2.316-2.317 2.316-1.277 0-2.316-1.039-2.316-2.316v-0.137zm-9.056-3.151c0-1.9818 1.612-3.594 3.594-3.594 1.787 0 3.274 1.3116 3.549 3.0228l-1.576-0.9255c-0.394-0.2315-0.897-0.1446-1.191 0.2058-0.769 0.9189-1.898 1.4459-3.097 1.4459h-1.279v-0.155zm-4.196-1.1929c0.952 0 1.771 0.5767 2.127 1.3989-0.968 0.501-2.044 0.765-3.137 0.765h-1.301c0.079-1.207 1.085-2.1639 2.311-2.1639zm-2.316 4.0349h1.306c1.145 0 2.275-0.227 3.326-0.663v1.108c0 1.278-1.039 2.317-2.316 2.317s-2.316-1.039-2.316-2.316v-0.446zm4.519 6.277c-1.841 0.441-3.287 1.724-3.976 3.385h-3.792v-0.812c0-1.174 0.797-2.184 1.939-2.457l2.383-0.569c0.421-0.101 0.718-0.477 0.718-0.91v-0.315c0.172 0.022 0.347 0.034 0.525 0.034 0.177 0 0.35-0.012 0.521-0.033v0.267c0 0.014-0.001 0.028-0.001 0.041 0 0.307 0.151 0.608 0.428 0.787 0.105 0.068 0.217 0.112 0.333 0.134l1.395 0.334-0.473 0.114zm2.61-1.453c-0.24-0.106-0.491-0.19-0.749-0.252l-1.672-0.401v-0.291c0.302-0.211 0.575-0.46 0.811-0.741 0.418 0.643 0.967 1.194 1.61 1.613v0.072zm4.064 1.375l-1.095 2.49-1.097-2.496v-0.668c0.357 0.074 0.726 0.113 1.105 0.113 0.372 0 0.736-0.038 1.087-0.109v0.67zm-1.087-2.433c-1.982 0-3.594-1.612-3.594-3.594v-0.988h1.279c1.484 0 2.895-0.552 3.976-1.536l1.929 1.134v1.527c-0.072 1.918-1.654 3.457-3.59 3.457zm2.958 1.061v-0.063c0.648-0.419 1.202-0.971 1.623-1.617 0.235 0.277 0.506 0.524 0.805 0.733v0.291l-1.672 0.401c-0.261 0.062-0.513 0.148-0.756 0.255zm10.386 4.835h-3.806c-0.689-1.661-2.137-2.943-3.979-3.383l-0.469-0.113 1.403-0.336c0.117-0.022 0.231-0.066 0.337-0.135 0.277-0.179 0.427-0.479 0.427-0.786v-0.022-0.287c0.171 0.021 0.345 0.033 0.521 0.033 0.178 0 0.353-0.012 0.525-0.034v0.315c0 0.433 0.297 0.809 0.718 0.91l2.383 0.569c1.142 0.273 1.94 1.283 1.94 2.457v0.812z"/>
     <path d="m24.615 27.938c-0.175-0.174-0.416-0.273-0.662-0.273-0.247 0-0.487 0.099-0.661 0.273-0.175 0.175-0.274 0.416-0.274 0.663 0 0.246 0.099 0.486 0.274 0.661 0.174 0.174 0.414 0.274 0.661 0.274 0.246 0 0.487-0.1 0.662-0.274 0.174-0.175 0.274-0.415 0.274-0.661 0-0.247-0.1-0.488-0.274-0.663z"/>
     <path d="m23.953 0c-0.517 0-0.936 0.4189-0.936 0.93567v1.4c0 0.5168 0.419 0.9357 0.936 0.9357 0.516 0 0.935-0.4189 0.935-0.9357v-1.4c0-0.5168-0.419-0.9357-0.935-0.9357z"/>
     <path d="m20.506 3.0521l-0.982-0.9806c-0.365-0.3653-0.958-0.365-1.323 0.0005-0.365 0.3656-0.365 0.9581 0.001 1.3233l0.981 0.9806c0.183 0.1825 0.422 0.2737 0.662 0.2737 0.239 0 0.479-0.0915 0.662-0.2743 0.365-0.3656 0.364-0.958-0.001-1.3232z"/>
     <path d="m29.682 2.0954c-0.366-0.3652-0.959-0.365-1.324 0.0007l-0.974 0.9749c-0.365 0.3655-0.364 0.958 0.001 1.3232 0.183 0.1825 0.422 0.2738 0.661 0.2738 0.24 0 0.48-0.0915 0.662-0.2745l0.974-0.9748c0.365-0.3656 0.365-0.9581 0-1.3233z"/>
    </g>
   </g>
  </g>
 </g>
</svg>
