<?xml version="1.0" encoding="UTF-8" standalone="no"?>
<svg xmlns="http://www.w3.org/2000/svg" version="1.1" viewBox="0 0 15 15">
 <title>approved</title>
 <desc>Created with Sketch.</desc>
 <g fill-rule="evenodd">
  <g id="3.-Главная.-Short-menu" transform="translate(-1247 -548)">
   <g transform="translate(730 146)">
    <g transform="translate(21 346)">
     <g transform="translate(0 50)">
      <g transform="translate(496 5)">
       <g id="approved" transform="translate(0 1)">
        <g id="checkmark-circle-outline">
         <path id="Path" d="m5.7825 6.9675c-0.2941-0.2941-0.7709-0.2941-1.065 0s-0.2941 0.7709 0 1.065l2.25 2.2495c0.1415 0.141 0.3331 0.219 0.5325 0.218 0.2075-0.007 0.4031-0.099 0.54-0.255l5.25-6c0.252-0.3127 0.213-0.7683-0.089-1.0335-0.301-0.2652-0.758-0.2461-1.036 0.0435l-4.665 5.4-1.7175-1.6875z"/>
         <path d="m14.25 6.75c-0.414 0-0.75 0.3358-0.75 0.75 0 3.314-2.686 6-6 6-2.423-0.001-4.6076-1.46-5.5376-3.6969-0.9301-2.2374-0.4231-4.8147 1.2851-6.5331 1.1222-1.1372 2.6548-1.7751 4.2525-1.77 0.4796 0.003 0.9574 0.0583 1.425 0.165 0.2666 0.0825 0.557 0.0101 0.7537-0.188 0.1967-0.198 0.2672-0.48884 0.1829-0.75492-0.0842-0.26609-0.3093-0.46338-0.5841-0.51208-0.5826-0.13707-1.179-0.20752-1.7775-0.21-3.03 0.015741-5.7529 1.8532-6.9014 4.6571-1.1485 2.804-0.49695 6.0239 1.6514 8.1609 1.3925 1.393 3.2802 2.177 5.25 2.182 4.142 0 7.5-3.358 7.5-7.5 0-0.4142-0.336-0.75-0.75-0.75z"/>
        </g>
       </g>
      </g>
     </g>
    </g>
   </g>
  </g>
 </g>
</svg>
