<?xml version="1.0" encoding="UTF-8" standalone="no"?>
<svg xmlns="http://www.w3.org/2000/svg" version="1.1" viewBox="0 0 14 7">
 <title>Path</title>
 <desc>Created with Sketch.</desc>
 <g fill="none" transform="rotate(180 7 3.5)">
  <g id="4.-Документы.-Short-menu" fill="#000" transform="translate(-1366,-139)">
   <g id="Group" transform="translate(1137,131)">
    <path id="Path" transform="rotate(90,236,11.5)" d="m233.49 18.498c-0.23169 0.000456-0.45622-0.08074-0.63462-0.22949-0.20279-0.16917-0.33036-0.41259-0.35454-0.67653-0.0242-0.26394 0.057-0.52672 0.22563-0.73035l4.4424-5.3481-4.2838-5.3581c-0.16636-0.20614-0.2442-0.4705-0.21628-0.73455 0.0279-0.26406 0.15929-0.50602 0.36503-0.67233 0.20741-0.18363 0.48155-0.27187 0.75637-0.24346 0.27482 0.028411 0.5254 0.1709 0.69137 0.39313l4.7895 5.9867c0.30077 0.36818 0.30077 0.899 0 1.2672l-4.958 5.9867c-0.20176 0.2449-0.50747 0.37833-0.82304 0.3592z"/>
   </g>
  </g>
 </g>
</svg>
