<?xml version="1.0" encoding="UTF-8" standalone="no"?>
<svg xmlns="http://www.w3.org/2000/svg" version="1.1" viewBox="0 0 14 7">
 <title>Path</title>
 <desc>Created with Sketch.</desc>
 <g fill="none" fill-rule="evenodd">
  <g id="4.-Документы.-Short-menu" transform="translate(-1366 -139)" fill="#000">
   <g id="Group" transform="translate(1137 131)">
    <path id="Path" d="m233.49 18.498c-0.23 0.001-0.45-0.081-0.63-0.229-0.2-0.169-0.33-0.413-0.36-0.677-0.02-0.264 0.06-0.527 0.23-0.73l4.44-5.348-4.28-5.3584c-0.17-0.2062-0.25-0.4705-0.22-0.7346 0.03-0.264 0.16-0.506 0.37-0.6723 0.2-0.1836 0.48-0.2719 0.75-0.2435 0.28 0.0284 0.53 0.1709 0.69 0.3932l4.79 5.9866c0.31 0.368 0.31 0.899 0 1.267l-4.95 5.987c-0.21 0.245-0.51 0.378-0.83 0.359z" transform="translate(236 11.5) rotate(90) translate(-236 -11.5)"/>
   </g>
  </g>
 </g>
</svg>
