<?xml version="1.0" encoding="UTF-8" standalone="no"?>
<svg xmlns="http://www.w3.org/2000/svg" version="1.1" viewBox="0 0 7.0592508 14.031054">
 <title>arrow-ios-forward-outline</title>
 <desc>Created with Sketch.</desc>
 <g fill-rule="evenodd" transform="translate(.0017632 .029242)">
  <g id="3.-Главная.-Short-menu" transform="translate(-1352,-169)">
   <g transform="translate(730,146)">
    <g transform="translate(497,20)">
     <g id="arrow-ios-forward-outline" transform="translate(125,2)">
      <path id="Path" d="m1 15c-0.23365 0-0.46009-0.081-0.64-0.23-0.20451-0.17-0.33315-0.414-0.35754-0.678-0.024386-0.265 0.057481-0.528 0.22754-0.732l4.48-5.36-4.32-5.37c-0.16777-0.2066-0.24627-0.4715-0.21812-0.7362 0.02816-0.2646 0.16064-0.5071 0.36812-0.6738 0.20917-0.184 0.4856-0.27248 0.7628-0.244 0.2771 0.0285 0.5298 0.1713 0.6972 0.394l4.83 6c0.30332 0.369 0.30332 0.901 0 1.27l-5 6c-0.2035 0.245-0.5118 0.379-0.83 0.36z"/>
     </g>
    </g>
   </g>
  </g>
 </g>
</svg>
