<?xml version="1.0" encoding="UTF-8" standalone="no"?>
<svg xmlns="http://www.w3.org/2000/svg" version="1.1" viewBox="0 0 19 21">
 <title>attached blue</title>
 <desc>Created with Sketch.</desc>
 <g fill-rule="evenodd" fill="none">
  <g id="5.1.-Один-Документ.-Full-menu" fill="#000" transform="translate(-1116 -261)">
   <g id="Group-12-Copy" transform="translate(1116 261)">
    <g id="attached-blue">
     <path id="Path" d="m6.6527 20.954c-1.7616-0.009-3.4461-0.756-4.6761-2.074-1.2206-1.208-1.9309-2.874-1.9745-4.63-0.043534-1.757 0.58327-3.459 1.7423-4.732l7.7688-8.1934c0.8388-0.87429 1.9828-1.3524 3.1668-1.3234 1.268 0.0045611 2.481 0.54094 3.367 1.4888 1.817 1.8273 1.887 4.8418 0.158 6.7598l-7.8107 8.1932c-0.5053 0.532-1.1934 0.83-1.9105 0.827-0.7748 0.001-1.5171-0.325-2.0583-0.904-1.1145-1.127-1.1521-2.982-0.0845-4.157l7.209-7.5652c0.424-0.2937 0.987-0.2306 1.341 0.1502 0.355 0.3808 0.399 0.9711 0.105 1.4047l-7.2089 7.5653c-0.2501 0.314-0.2125 0.781 0.0844 1.047 0.1486 0.156 0.3488 0.247 0.5595 0.254 0.1576 0.002 0.3096-0.061 0.4222-0.177l7.8008-8.193c0.911-1.0574 0.84-2.6832-0.159-3.6502-0.925-1.0042-2.441-1.0768-3.451-0.1654l-7.8008 8.1496c-0.7661 0.859-1.1724 2.003-1.1288 3.177 0.0436 1.173 0.5335 2.28 1.3611 3.075 0.83 0.899 1.9711 1.412 3.1666 1.423 1.0306 0.009 2.022-0.412 2.755-1.169l7.8009-8.1934c0.411-0.4324 1.079-0.4349 1.493-0.0055 0.414 0.4293 0.416 1.1279 0.005 1.5599l-7.8 8.194c-1.1188 1.189-2.6472 1.861-4.2433 1.864z"/>
    </g>
   </g>
  </g>
 </g>
</svg>
