<svg xmlns="http://www.w3.org/2000/svg" version="1.1" viewBox="0 0 15.583 20">
 <g transform="translate(-1,-1)">
  <path d="m14.292 8.344h-1.377v-3.212c0-2.279-1.85-4.132-4.125-4.132-2.274 0-4.125 1.853-4.125 4.132v3.212h-1.373c-1.264 0-2.292 1.051-2.292 2.343v7.97c0 1.291 1.028 2.343 2.292 2.343h11c1.263 0 2.291-1.051 2.291-2.344v-7.968c0-1.293-1.028-2.344-2.291-2.344zm-8.099-3.212c0-1.417 1.165-2.57 2.597-2.57s2.597 1.153 2.597 2.57v3.212h-5.194zm8.863 13.524c0 0.431-0.343 0.782-0.764 0.782h-11c-0.422 0-0.764-0.351-0.764-0.782v-7.968c0-0.431 0.342-0.782 0.764-0.782h11c0.42 0 0.764 0.35 0.764 0.781v7.97z"/>
  <path d="m8.792 12.172c-0.78 0-1.414 0.647-1.414 1.445 0 0.51 0.259 0.958 0.648 1.215v1.715c0 0.431 0.342 0.781 0.764 0.781s0.764-0.35 0.764-0.781v-1.713c0.391-0.257 0.65-0.706 0.65-1.217 0-0.798-0.632-1.445-1.412-1.445z"/>
 </g>
</svg>
