<?xml version="1.0" encoding="UTF-8" standalone="no"?>
<svg xmlns="http://www.w3.org/2000/svg" version="1.1" viewBox="0 0 19 19">
 <title>block</title>
 <desc>Created with Sketch.</desc>
 <g fill-rule="evenodd">
  <g id="6.-Пользователи.-Short-menu" transform="translate(-1204 -289)">
   <g transform="translate(1157 289)">
    <g id="block" transform="translate(47)">
     <g id="slash-outline">
      <path id="Shape" fill-rule="nonzero" d="m9.5 0c-5.2467 0-9.5 4.2533-9.5 9.5 0 5.247 4.2533 9.5 9.5 9.5 5.247 0 9.5-4.253 9.5-9.5 0-2.5196-1.001-4.9359-2.782-6.7175-1.782-1.7816-4.198-2.7825-6.718-2.7825zm7.6 9.5c0.002 1.688-0.563 3.327-1.606 4.655l-10.649-10.65c1.3277-1.0416 2.9672-1.6071 4.655-1.605 4.197 0 7.6 3.4026 7.6 7.6zm-15.2 0c-0.0021-1.6878 0.5634-3.3273 1.6055-4.655l10.65 10.649c-1.329 1.043-2.968 1.608-4.656 1.606-4.1974 0-7.6-3.403-7.6-7.6z"/>
     </g>
    </g>
   </g>
  </g>
 </g>
</svg>
