<?xml version="1.0" encoding="UTF-8" standalone="no"?>
<svg xmlns="http://www.w3.org/2000/svg" version="1.1" viewBox="0 0 14 14">
 <title>waiting blue</title>
 <desc>Created with Sketch.</desc>
 <g fill-rule="evenodd">
  <g id="3.-Главная.-Short-menu" transform="translate(-1247 -223)">
   <g transform="translate(730 146)">
    <g transform="translate(20 71)">
     <g id="waiting" transform="translate(497 6)">
      <g id="clock-outline">
       <path id="Shape" d="m7 0c-3.866 0-7 3.134-7 7s3.134 7 7 7 7-3.134 7-7c0-1.8565-0.737-3.637-2.05-4.9497-1.313-1.3128-3.0935-2.0503-4.95-2.0503zm0 12.6c-3.0928 0-5.6-2.507-5.6-5.6 0-3.0928 2.5072-5.6 5.6-5.6 3.093 0 5.6 2.5072 5.6 5.6 0 1.4852-0.59 2.9096-1.64 3.96-1.0504 1.05-2.4748 1.64-3.96 1.64z" fill-rule="nonzero"/>
       <path id="Path" d="m9.8 6.3h-2.1v-2.1c0-0.3866-0.3134-0.7-0.7-0.7s-0.7 0.3134-0.7 0.7v2.8c0 0.3866 0.3134 0.7 0.7 0.7h2.8c0.387 0 0.7-0.3134 0.7-0.7s-0.313-0.7-0.7-0.7z"/>
      </g>
     </g>
    </g>
   </g>
  </g>
 </g>
</svg>
