<svg xmlns="http://www.w3.org/2000/svg" version="1.1" viewBox="0 0 13.0825 13.0825">
 <path d="m12.677 0.26325 0.142 0.142c0.351 0.351 0.351 0.921 0 1.273l-4.864 4.863 4.864 4.863c0.351 0.352 0.351 0.922 0 1.273l-0.142 0.142c-0.351 0.351-0.921 0.351-1.273 0l-4.863-4.864-4.863 4.864c-0.352 0.351-0.922 0.351-1.273 0l-0.142-0.142c-0.351-0.351-0.351-0.921 0-1.273l4.864-4.863-4.864-4.863c-0.351-0.352-0.351-0.922 0-1.273l0.142-0.142c0.351-0.351 0.921-0.351 1.273 0l4.863 4.864 4.863-4.864c0.352-0.351 0.922-0.351 1.273 0z" fill-rule="evenodd"/>
</svg>
