<?xml version="1.0" encoding="UTF-8" standalone="no"?>
<svg xmlns="http://www.w3.org/2000/svg" version="1.1" viewBox="0 0 13 14">
 <title>date</title>
 <desc>Created with Sketch.</desc>
 <g fill-rule="evenodd" fill="none">
  <g id="3.-Главная.-Short-menu" fill="#000" transform="translate(-1168 -223)">
   <g transform="translate(730 146)">
    <g transform="translate(20 71)">
     <g id="date" transform="translate(418 6)">
      <g id="calendar-outline">
       <path id="Shape" fill-rule="nonzero" d="m10.833 1.4h-0.722v-0.7c0-0.3866-0.3232-0.7-0.7221-0.7s-0.7222 0.3134-0.7222 0.7v0.7h-4.3334v-0.7c0-0.3866-0.3233-0.7-0.7222-0.7s-0.7222 0.3134-0.7222 0.7v0.7h-0.7222c-1.1966 0-2.1667 0.9402-2.1667 2.1v8.4c0 1.16 0.97005 2.1 2.1667 2.1h8.6663c1.197 0 2.167-0.94 2.167-2.1v-8.4c0-1.1598-0.97-2.1-2.167-2.1zm-8.6663 1.4h0.7222v0.7c0 0.3866 0.3233 0.7 0.7222 0.7s0.7222-0.3134 0.7222-0.7v-0.7h4.3334v0.7c0 0.3866 0.3233 0.7 0.7222 0.7s0.7221-0.3134 0.7221-0.7v-0.7h0.722c0.399 0 0.723 0.3134 0.723 0.7v2.8h-10.112l0.0004-2.8c0-0.3866 0.3234-0.7 0.7223-0.7zm8.6663 9.8h-8.6663c-0.3989 0-0.7223-0.313-0.7223-0.7v-4.2h10.112v4.2c0 0.387-0.324 0.7-0.723 0.7z"/>
       <ellipse id="Oval" cy="9.8" cx="3.6111" rx="1" ry="1"/>
       <path id="Path" d="m9.3889 9.1h-2.8889c-0.3989 0-0.7222 0.3134-0.7222 0.7 0 0.387 0.3233 0.7 0.7222 0.7h2.8889c0.3989 0 0.7221-0.313 0.7221-0.7 0-0.3866-0.3232-0.7-0.7221-0.7z"/>
      </g>
     </g>
    </g>
   </g>
  </g>
 </g>
</svg>
