<?xml version="1.0" encoding="UTF-8" standalone="no"?>
<svg xmlns="http://www.w3.org/2000/svg" version="1.1" viewBox="0 0 19 19">
 <title>delete</title>
 <desc>Created with Sketch.</desc>
 <g fill-rule="evenodd">
  <g id="6.-Пользователи.-Short-menu" transform="translate(-1251 -289)">
   <g transform="translate(1157 289)">
    <g id="delete" transform="translate(94)">
     <g id="trash-2-outline">
      <path id="Shape" fill-rule="nonzero" d="m18.05 3.8658h-4.75v-1.5796c-0.046-1.2608-1.109-2.2465-2.375-2.2039l-2.85-0.000049c-1.2664-0.042553-2.3286 0.94315-2.375 2.2039v1.5796h-4.75c-0.52467 0-0.95 0.4235-0.95 0.9459s0.42533 0.9459 0.95 0.9459h0.95v10.404c0 1.568 1.276 2.838 2.85 2.838h9.5c1.574 0 2.85-1.27 2.85-2.838v-10.404l0.95-0.0004c0.525 0 0.95-0.4235 0.95-0.9459s-0.425-0.9459-0.95-0.9459zm-10.45-1.5796c0-0.1514 0.1995-0.3122 0.475-0.3122h2.85c0.275 0 0.475 0.1608 0.475 0.3122v1.5796h-3.8v-1.5796zm7.6 13.876c0 0.523-0.425 0.946-0.95 0.946h-9.5c-0.5247 0-0.95-0.423-0.95-0.946v-10.404l11.4-0.0004v10.404z"/>
      <path id="Path" d="m6.65 14.271c0.5247 0 0.95-0.424 0.95-0.946v-3.7839c0-0.5224-0.4253-0.9459-0.95-0.9459s-0.95 0.4235-0.95 0.9459v3.7839c0 0.522 0.4253 0.946 0.95 0.946z"/>
      <path d="m12.35 14.271c0.525 0 0.95-0.424 0.95-0.946v-3.7839c0-0.5224-0.425-0.9459-0.95-0.9459s-0.95 0.4235-0.95 0.9459v3.7839c0 0.522 0.425 0.946 0.95 0.946z"/>
     </g>
    </g>
   </g>
  </g>
 </g>
</svg>
