<?xml version="1.0" encoding="UTF-8" standalone="no"?>
<svg xmlns="http://www.w3.org/2000/svg" version="1.1" viewBox="0 0 15 15">
 <title>denied</title>
 <desc>Created with Sketch.</desc>
 <g fill-rule="evenodd">
  <g id="3.-Главная.-Short-menu" transform="translate(-1247 -598)">
   <g transform="translate(730 146)">
    <g transform="translate(21 346)">
     <g transform="translate(0 100)">
      <g transform="translate(496 5)">
       <g id="denied" transform="translate(0 1)">
        <g id="close-circle-outline">
         <path id="Shape" fill-rule="nonzero" d="m7.5 0c-4.1421 0-7.5 3.3579-7.5 7.5 0 4.142 3.3579 7.5 7.5 7.5 4.142 0 7.5-3.358 7.5-7.5 0-1.9891-0.79-3.8968-2.197-5.3033-1.406-1.4065-3.3139-2.1967-5.303-2.1967zm0 13.5c-3.3137 0-6-2.686-6-6 0-3.3137 2.6863-6 6-6 3.314 0 6 2.6863 6 6 0 1.5913-0.632 3.117-1.757 4.243-1.126 1.125-2.6517 1.757-4.243 1.757z"/>
         <path id="Path" d="m9.5325 5.4675c-0.1408-0.142-0.3325-0.2218-0.5325-0.2218s-0.3917 0.0798-0.5325 0.2218l-0.9675 0.975-0.9675-0.975c-0.2941-0.2941-0.7709-0.2941-1.065 0s-0.2941 0.7709 0 1.065l0.975 0.9675-0.975 0.9675c-0.142 0.1408-0.2218 0.3325-0.2218 0.5325s0.0798 0.3917 0.2218 0.5325c0.1408 0.142 0.3325 0.2218 0.5325 0.2218s0.3917-0.0798 0.5325-0.2218l0.9675-0.975 0.9675 0.975c0.1408 0.142 0.3325 0.2218 0.5325 0.2218s0.3917-0.0798 0.5325-0.2218c0.142-0.1408 0.2218-0.3325 0.2218-0.5325s-0.0798-0.3917-0.2218-0.5325l-0.975-0.9675 0.975-0.9675c0.142-0.1408 0.2218-0.3325 0.2218-0.5325s-0.0798-0.3917-0.2218-0.5325z"/>
        </g>
       </g>
      </g>
     </g>
    </g>
   </g>
  </g>
 </g>
</svg>
