<?xml version="1.0" encoding="UTF-8" standalone="no"?>
<svg xmlns="http://www.w3.org/2000/svg" version="1.1" viewBox="0 0 14 18">
 <title>doc blue</title>
 <desc>Created with Sketch.</desc>
 <g fill-rule="evenodd">
  <g id="3.-Главная.-Short-menu" transform="translate(-750 -221)">
   <g transform="translate(730 146)">
    <g transform="translate(20 71)">
     <g id="doc" transform="translate(0 4)">
      <g id="file-text-outline">
       <path id="Path" d="m10.125 12h-5.25c-0.4832 0-0.875 0.448-0.875 1s0.3918 1 0.875 1h5.25c0.483 0 0.875-0.448 0.875-1s-0.392-1-0.875-1z"/>
       <path d="m5.8 11h2.4c0.4418 0 0.8-0.448 0.8-1 0-0.5523-0.3582-1-0.8-1h-2.4c-0.4418 0-0.8 0.4477-0.8 1 0 0.552 0.3582 1 0.8 1z"/>
       <path id="Shape" fill-rule="nonzero" d="m13.772 5.6971l-4.7595-5.3999c-0.1654-0.18857-0.4006-0.29644-0.6475-0.2972h-6.125c-0.5871-0.0070411-1.153 0.22597-1.5731 0.64793-0.42008 0.42197-0.65998 0.99827-0.6669 1.6022v13.5c0.0069208 0.604 0.24682 1.18 0.66691 1.602s0.98599 0.655 1.5731 0.648h9.52c0.587 0.007 1.153-0.226 1.573-0.648s0.66-0.998 0.667-1.602v-9.45c-0.001-0.223-0.082-0.4379-0.228-0.6029zm-5.022-2.997l2.398 2.7h-1.7505c-0.1851-0.0115-0.3579-0.099-0.4797-0.2429-0.1218-0.1438-0.1822-0.332-0.1678-0.5221v-1.935zm3.01 13.5h-9.52c-0.123 0.007-0.2439-0.036-0.3358-0.121-0.092-0.084-0.1474-0.203-0.1542-0.329v-13.5c0.0068-0.1265 0.0622-0.2451 0.1542-0.3295 0.0919-0.0844 0.2128-0.1277 0.3358-0.1204h4.76v2.835c-0.0294 1.38 1.0297 2.5257 2.3712 2.5649h2.8788v8.55c-0.007 0.126-0.062 0.245-0.154 0.329-0.092 0.085-0.213 0.128-0.336 0.121z"/>
      </g>
     </g>
    </g>
   </g>
  </g>
 </g>
</svg>
