<?xml version="1.0" encoding="UTF-8" standalone="no"?>
<svg xmlns="http://www.w3.org/2000/svg" version="1.1" viewBox="0 0 19 19">
 <title>edit</title>
 <desc>Created with Sketch.</desc>
 <g fill-rule="evenodd">
  <g id="6.-Пользователи.-Short-menu" transform="translate(-1157 -289)">
   <g transform="translate(1157 289)">
    <g id="edit">
     <g id="edit-outline">
      <path id="Shape" fill-rule="nonzero" d="m18.297 3.9662l-3.208-3.2537c-0.866-0.82572-2.206-0.86147-3.114-0.08312l-10.538 10.688c-0.3785 0.387-0.61414 0.894-0.66742 1.437l-0.50347 4.952c-0.03194 0.352 0.09254 0.7 0.33955 0.95 0.22096 0.222 0.52014 0.346 0.83134 0.344h0.1054l4.8825-0.451c0.5348-0.054 1.0351-0.293 1.4167-0.677l10.537-10.688c0.852-0.912 0.815-2.3512-0.082-3.2178zm-12.083 12.208l-3.5126 0.332 0.3161-3.562 6.6155-6.6265 3.1609 3.2063-6.5799 6.6502zm8.1029-8.2415l-3.138-3.1825 2.283-2.375 3.196 3.2419-2.341 2.3156z"/>
     </g>
    </g>
   </g>
  </g>
 </g>
</svg>
