<?xml version="1.0" encoding="UTF-8" standalone="no"?>
<svg xmlns="http://www.w3.org/2000/svg" version="1.1" viewBox="0 0 23.000145 25">
 <title>home</title>
 <desc>Created with Sketch.</desc>
 <g fill-rule="evenodd" transform="translate(.00014189)">
  <g id="3.-Главная.-Short-menu" transform="translate(-39,-293)">
   <g>
    <g id="home" transform="translate(39,293)">
     <g id="home-outline">
      <path id="Shape" fill-rule="nonzero" d="m22.259 10.222-9.852-9.8522c-0.24-0.23666-0.566-0.3698-0.907-0.3698s-0.667 0.13314-0.907 0.36983l-9.8518 9.8642c-0.48147 0.475-0.7484 1.119-0.7412 1.788v10.477c-0.0019082 1.33 1.0589 2.428 2.4151 2.501h18.17c1.356-0.073 2.417-1.171 2.415-2.501v-10.477c0.001-0.671-0.265-1.317-0.741-1.8zm-13.314 12.277v-7.5016h5.1111v7.5016zm11.5 0h-3.833v-8.7518c0-0.6905-0.57208-1.2503-1.2778-1.2503h-7.6662c-0.70569 0-1.2778 0.55976-1.2778 1.2503v8.7518h-3.8333v-10.527l8.9444-8.9394 8.9444 8.9894z"/>
     </g>
    </g>
   </g>
  </g>
 </g>
</svg>
