<?xml version="1.0" encoding="UTF-8" standalone="no"?>
<svg xmlns="http://www.w3.org/2000/svg" version="1.1" viewBox="0 0 21 20">
 <title>log out</title>
 <desc>Created with Sketch.</desc>
 <g fill-rule="evenodd">
  <g id="3.-Главная.-Short-menu" transform="translate(-40 -740)">
   <g>
    <g id="log-out" transform="translate(40 740)">
     <g id="log-out-outline">
      <path id="Path" d="m3.75 2.5c0.6904 0 1.25-0.5596 1.25-1.25 0-0.69036-0.5596-1.25-1.25-1.25h-2.5c-0.69036 0-1.25 0.55964-1.25 1.25v17.5c0 0.69 0.55964 1.25 1.25 1.25h2.5c0.6904 0 1.25-0.56 1.25-1.25s-0.5596-1.25-1.25-1.25h-1.25v-15h1.25z"/>
      <path d="m20.772 8.7471l-3.525-5.1992c-0.397-0.5834-1.174-0.7228-1.737-0.312-0.273 0.199-0.458 0.5031-0.514 0.8449-0.057 0.3417 0.021 0.6927 0.214 0.9748l2.15 3.1456h-10.11c-0.6905 0-1.25 0.5819-1.25 1.2998 0 0.718 0.5595 1.3 1.2497 1.3h9.9973l-2.249 3.119c-0.199 0.276-0.284 0.623-0.237 0.964 0.046 0.341 0.222 0.649 0.487 0.856 0.216 0.169 0.479 0.26 0.75 0.26 0.393 0 0.763-0.193 0.999-0.52l3.75-5.199c0.328-0.4512 0.338-1.0715 0.025-1.5339z"/>
     </g>
    </g>
   </g>
  </g>
 </g>
</svg>
