<?xml version="1.0" encoding="UTF-8" standalone="no"?>
<svg xmlns="http://www.w3.org/2000/svg" version="1.1" viewBox="0 0 18 22">
 <title>profile</title>
 <desc>Created with Sketch.</desc>
 <g fill-rule="evenodd">
  <g id="3.-Главная.-Short-menu" transform="translate(-41 -486)">
   <g>
    <g id="profile" transform="translate(41 486)">
     <g id="person-outline">
      <path id="Shape" d="m9 10c2.761 0 5-2.2386 5-5s-2.239-5-5-5c-2.7614 0-5 2.2386-5 5s2.2386 5 5 5zm0-7.5c1.381 0 2.5 1.1193 2.5 2.5s-1.119 2.5-2.5 2.5c-1.3807 0-2.5-1.1193-2.5-2.5s1.1193-2.5 2.5-2.5z" fill-rule="nonzero"/>
      <path id="Path" d="m0 20.75c0 0.69 0.57563 1.25 1.2857 1.25 0.7101 0 1.2857-0.56 1.2857-1.25 0-3.452 2.8782-6.25 6.4286-6.25 3.55 0 6.429 2.798 6.429 6.25 0 0.69 0.575 1.25 1.285 1.25s1.286-0.56 1.286-1.25c0-4.832-4.029-8.75-9-8.75-4.9706 0-9 3.918-9 8.75z"/>
     </g>
    </g>
   </g>
  </g>
 </g>
</svg>
