<svg xmlns="http://www.w3.org/2000/svg" version="1.1" viewBox="0 0 14 14">
 <title>search</title>
 <desc>Created with Sketch.</desc>
 <path id="Shape" d="m13.77 12.666-2.644-2.636c0.853-1.0865 1.316-2.4284 1.314-3.8098 0-3.4353-2.7844-6.2202-6.2198-6.2202-3.4353 0-6.2202 2.7849-6.2202 6.2202-1e-7 3.4354 2.7849 6.2198 6.2202 6.2198 1.3814 0.002 2.7233-0.461 3.8098-1.314l2.636 2.644c0.146 0.147 0.345 0.23 0.552 0.23s0.406-0.083 0.552-0.23c0.147-0.146 0.23-0.345 0.23-0.552s-0.083-0.406-0.23-0.552zm-12.215-6.4458c0-2.5765 2.0886-4.6651 4.6651-4.6651s4.6648 2.0886 4.6648 4.6651-2.0883 4.6648-4.6648 4.6648-4.6651-2.0883-4.6651-4.6648z"/>
</svg>
