<?xml version="1.0" encoding="UTF-8" standalone="no"?>
<svg xmlns="http://www.w3.org/2000/svg" version="1.1" viewBox="0 0 20 20">
 <title>upload</title>
 <desc>Created with Sketch.</desc>
 <g fill-rule="evenodd">
  <g id="8.-Мой-Профиль.-Short-menu" transform="translate(-472 -256)">
   <g id="upload" transform="translate(472 256)">
    <g id="arrow-circle-up-outline">
     <path id="Path" d="m10.71 5.29c-0.092-0.09-0.201-0.1613-0.32-0.21-0.123-0.0525-0.256-0.0797-0.39-0.08h-0.1c-0.0927 0.0046-0.184 0.0249-0.27 0.06-0.0686 0.0267-0.1327 0.0638-0.19 0.11-0.0456 0.0265-0.0891 0.0566-0.13 0.09l-3 2.86c-0.4004 0.3811-0.4161 1.0146-0.035 1.415s1.0146 0.4161 1.415 0.035l1.31-1.23v5.66c0 0.552 0.4477 1 1 1 0.552 0 1-0.448 1-1v-5.59l1.29 1.3c0.188 0.1893 0.443 0.296 0.71 0.296s0.522-0.1067 0.71-0.296c0.189-0.1878 0.296-0.4434 0.296-0.71s-0.107-0.5222-0.296-0.71l-3-3z"/>
     <path id="Shape" fill-rule="nonzero" d="m10 0c-5.5228 0-10 4.4772-10 10 0 5.523 4.4772 10 10 10 5.523 0 10-4.477 10-10 0-2.6522-1.054-5.1957-2.929-7.0711-1.875-1.8753-4.419-2.9289-7.071-2.9289zm0 18c-4.4183 0-8-3.582-8-8 0-4.4183 3.5817-8 8-8 4.418 0 8 3.5817 8 8 0 2.122-0.843 4.157-2.343 5.657s-3.535 2.343-5.657 2.343z"/>
    </g>
   </g>
  </g>
 </g>
</svg>
