<?xml version="1.0" encoding="UTF-8" standalone="no"?>
<svg xmlns="http://www.w3.org/2000/svg" version="1.1" viewBox="0 0 25 22">
 <title>users</title>
 <desc>Created with Sketch.</desc>
 <g fill-rule="evenodd">
  <g id="3.-Главная.-Short-menu" transform="translate(-38 -424)">
   <g>
    <g id="users-white" transform="translate(38 424)">
     <g id="people-outline">
      <path id="Shape" fill-rule="nonzero" d="m9 10c2.761 0 5-2.2386 5-5s-2.239-5-5-5c-2.7614 0-5 2.2386-5 5s2.2386 5 5 5zm0-7.5c1.381 0 2.5 1.1193 2.5 2.5s-1.119 2.5-2.5 2.5c-1.3807 0-2.5-1.1193-2.5-2.5s1.1193-2.5 2.5-2.5z"/>
      <path fill-rule="nonzero" d="m19 12c2.209 0 4-1.791 4-4 0-2.2091-1.791-4-4-4s-4 1.7909-4 4c0 2.209 1.791 4 4 4zm0-5.3333c0.736 0 1.333 0.5969 1.333 1.3333s-0.597 1.3333-1.333 1.3333-1.333-0.5969-1.333-1.3333 0.597-1.3333 1.333-1.3333z"/>
      <path id="Path" d="m18.75 13.24c-1.385 0.001-2.731 0.464-3.825 1.314-2.504-2.497-6.2616-3.241-9.526-1.886-3.2643 1.355-5.3942 4.543-5.399 8.081 0 0.691 0.55964 1.251 1.25 1.251 0.6904 0 1.25-0.56 1.25-1.251 0-3.456 2.7982-6.258 6.25-6.258 3.452 0 6.25 2.802 6.25 6.258 0 0.691 0.56 1.251 1.25 1.251s1.25-0.56 1.25-1.251c0.003-1.467-0.367-2.909-1.075-4.193 1.127-0.892 2.664-1.06 3.957-0.434 1.294 0.626 2.116 1.937 2.118 3.375 0 0.691 0.56 1.252 1.25 1.252s1.25-0.561 1.25-1.252c0-3.456-2.798-6.257-6.25-6.257z"/>
     </g>
    </g>
   </g>
  </g>
 </g>
</svg>
