<svg xmlns="http://www.w3.org/2000/svg" version="1.1" viewBox="0 0 25 15">
 <g>
  <path d="m24.841 7.042c-0.223-0.287-5.545-7.042-12.341-7.042-6.797 0-12.118 6.755-12.341 7.042-0.212 0.273-0.212 0.643 0 0.916 0.223 0.287 5.544 7.042 12.34 7.042 6.797 0 12.119-6.755 12.342-7.042 0.212-0.273 0.212-0.643 0-0.916zm-12.341 6.406c-5.006 0-9.342-4.483-10.626-5.949 1.282-1.466 5.609-5.947 10.626-5.947 5.006 0 9.342 4.482 10.626 5.949-1.282 1.466-5.61 5.947-10.626 5.947z"/>
  <path d="m12.5 2.813c-2.65 0-4.808 2.102-4.808 4.687s2.157 4.688 4.808 4.688c2.65 0 4.808-2.103 4.808-4.688s-2.157-4.688-4.808-4.688zm0 7.812c-1.767 0-3.205-1.402-3.205-3.125s1.438-3.125 3.205-3.125c1.767 0 3.205 1.402 3.205 3.125s-1.438 3.125-3.205 3.125z"/>
 </g>
</svg>
